<?xml version="1.0" encoding="utf-8" standalone="no"?>
<!DOCTYPE svg PUBLIC "-//W3C//DTD SVG 1.1//EN"
  "http://www.w3.org/Graphics/SVG/1.1/DTD/svg11.dtd">
<!-- Created with matplotlib (https://matplotlib.org/) -->
<svg height="360pt" version="1.1" viewBox="0 0 432 360" width="432pt" xmlns="http://www.w3.org/2000/svg" xmlns:xlink="http://www.w3.org/1999/xlink">
 <metadata>
  <rdf:RDF xmlns:cc="http://creativecommons.org/ns#" xmlns:dc="http://purl.org/dc/elements/1.1/" xmlns:rdf="http://www.w3.org/1999/02/22-rdf-syntax-ns#">
   <cc:Work>
    <dc:type rdf:resource="http://purl.org/dc/dcmitype/StillImage"/>
    <dc:date>2021-05-18T09:49:33.202888</dc:date>
    <dc:format>image/svg+xml</dc:format>
    <dc:creator>
     <cc:Agent>
      <dc:title>Matplotlib v3.3.2, https://matplotlib.org/</dc:title>
     </cc:Agent>
    </dc:creator>
   </cc:Work>
  </rdf:RDF>
 </metadata>
 <defs>
  <style type="text/css">*{stroke-linecap:butt;stroke-linejoin:round;}</style>
 </defs>
 <g id="figure_1">
  <g id="patch_1">
   <path d="M 0 360 
L 432 360 
L 432 0 
L 0 0 
z
" style="fill:none;"/>
  </g>
  <g id="axes_1">
   <g id="patch_2">
    <path d="M 59.05 328.2 
L 159.997059 328.2 
L 159.997059 69.6 
L 59.05 69.6 
z
" style="fill:#ffffff;"/>
   </g>
   <g id="patch_3">
    <path clip-path="url(#p22a53640e4)" d="M 63.638503 328.2 
L 155.408556 328.2 
L 155.408556 238.74196 
L 63.638503 238.74196 
z
" style="fill:#b8d2ef;stroke:#ffffff;stroke-linejoin:miter;"/>
   </g>
   <g id="patch_4">
    <path clip-path="url(#p22a53640e4)" d="M 63.638503 238.74196 
L 155.408556 238.74196 
L 155.408556 153.701602 
L 63.638503 153.701602 
z
" style="fill:#8cb5d9;stroke:#ffffff;stroke-linejoin:miter;"/>
   </g>
   <g id="patch_5">
    <path clip-path="url(#p22a53640e4)" d="M 63.638503 153.701602 
L 155.408556 153.701602 
L 155.408556 81.914286 
L 63.638503 81.914286 
z
" style="fill:#659abd;stroke:#ffffff;stroke-linejoin:miter;"/>
   </g>
   <g id="matplotlib.axis_1">
    <g id="xtick_1">
     <g id="line2d_1">
      <defs>
       <path d="M 0 0 
L 0 3.5 
" id="m98ebf163eb" style="stroke:#000000;stroke-width:0.8;"/>
      </defs>
      <g>
       <use style="stroke:#000000;stroke-width:0.8;" x="109.523529" xlink:href="#m98ebf163eb" y="328.2"/>
      </g>
     </g>
     <g id="text_1">
      <!-- reference -->
      <g transform="translate(78.004936 345.220937)scale(0.14 -0.14)">
       <defs>
        <path d="M 20.3125 0 
L 6.59375 0 
L 6.59375 51.859375 
L 19.34375 51.859375 
L 19.34375 44.484375 
Q 22.609375 49.703125 25.21875 51.359375 
Q 27.828125 53.03125 31.15625 53.03125 
Q 35.84375 53.03125 40.1875 50.4375 
L 35.9375 38.484375 
Q 32.46875 40.71875 29.5 40.71875 
Q 26.609375 40.71875 24.609375 39.125 
Q 22.609375 37.546875 21.453125 33.390625 
Q 20.3125 29.25 20.3125 16.015625 
z
" id="Arial-BoldMT-114"/>
        <path d="M 37.203125 16.5 
L 50.875 14.203125 
Q 48.25 6.6875 42.546875 2.75 
Q 36.859375 -1.171875 28.328125 -1.171875 
Q 14.796875 -1.171875 8.296875 7.671875 
Q 3.171875 14.75 3.171875 25.53125 
Q 3.171875 38.421875 9.90625 45.71875 
Q 16.65625 53.03125 26.953125 53.03125 
Q 38.53125 53.03125 45.21875 45.390625 
Q 51.90625 37.75 51.609375 21.96875 
L 17.234375 21.96875 
Q 17.390625 15.875 20.5625 12.46875 
Q 23.734375 9.078125 28.46875 9.078125 
Q 31.6875 9.078125 33.875 10.828125 
Q 36.078125 12.59375 37.203125 16.5 
z
M 37.984375 30.375 
Q 37.84375 36.328125 34.90625 39.421875 
Q 31.984375 42.53125 27.78125 42.53125 
Q 23.296875 42.53125 20.359375 39.265625 
Q 17.4375 35.984375 17.484375 30.375 
z
" id="Arial-BoldMT-101"/>
        <path d="M 1.171875 51.859375 
L 8.796875 51.859375 
L 8.796875 55.765625 
Q 8.796875 62.3125 10.1875 65.53125 
Q 11.578125 68.75 15.3125 70.765625 
Q 19.046875 72.796875 24.75 72.796875 
Q 30.609375 72.796875 36.234375 71.046875 
L 34.375 61.46875 
Q 31.109375 62.25 28.078125 62.25 
Q 25.09375 62.25 23.796875 60.859375 
Q 22.515625 59.46875 22.515625 55.515625 
L 22.515625 51.859375 
L 32.765625 51.859375 
L 32.765625 41.0625 
L 22.515625 41.0625 
L 22.515625 0 
L 8.796875 0 
L 8.796875 41.0625 
L 1.171875 41.0625 
z
" id="Arial-BoldMT-102"/>
        <path d="M 54.34375 0 
L 40.625 0 
L 40.625 26.46875 
Q 40.625 34.859375 39.75 37.328125 
Q 38.875 39.796875 36.890625 41.15625 
Q 34.90625 42.53125 32.125 42.53125 
Q 28.5625 42.53125 25.734375 40.578125 
Q 22.90625 38.625 21.84375 35.390625 
Q 20.796875 32.171875 20.796875 23.484375 
L 20.796875 0 
L 7.078125 0 
L 7.078125 51.859375 
L 19.828125 51.859375 
L 19.828125 44.234375 
Q 26.609375 53.03125 36.921875 53.03125 
Q 41.453125 53.03125 45.203125 51.390625 
Q 48.96875 49.75 50.890625 47.203125 
Q 52.828125 44.671875 53.578125 41.453125 
Q 54.34375 38.234375 54.34375 32.234375 
z
" id="Arial-BoldMT-110"/>
        <path d="M 52.390625 36.53125 
L 38.875 34.078125 
Q 38.1875 38.140625 35.765625 40.1875 
Q 33.34375 42.234375 29.5 42.234375 
Q 24.359375 42.234375 21.3125 38.6875 
Q 18.265625 35.15625 18.265625 26.859375 
Q 18.265625 17.625 21.359375 13.8125 
Q 24.46875 10.015625 29.6875 10.015625 
Q 33.59375 10.015625 36.078125 12.234375 
Q 38.578125 14.453125 39.59375 19.875 
L 53.078125 17.578125 
Q 50.984375 8.296875 45.015625 3.5625 
Q 39.0625 -1.171875 29.046875 -1.171875 
Q 17.671875 -1.171875 10.90625 6 
Q 4.15625 13.1875 4.15625 25.875 
Q 4.15625 38.71875 10.9375 45.875 
Q 17.71875 53.03125 29.296875 53.03125 
Q 38.765625 53.03125 44.359375 48.953125 
Q 49.953125 44.875 52.390625 36.53125 
z
" id="Arial-BoldMT-99"/>
       </defs>
       <use xlink:href="#Arial-BoldMT-114"/>
       <use x="38.916016" xlink:href="#Arial-BoldMT-101"/>
       <use x="94.53125" xlink:href="#Arial-BoldMT-102"/>
       <use x="127.832031" xlink:href="#Arial-BoldMT-101"/>
       <use x="183.447266" xlink:href="#Arial-BoldMT-114"/>
       <use x="222.363281" xlink:href="#Arial-BoldMT-101"/>
       <use x="277.978516" xlink:href="#Arial-BoldMT-110"/>
       <use x="339.0625" xlink:href="#Arial-BoldMT-99"/>
       <use x="394.677734" xlink:href="#Arial-BoldMT-101"/>
      </g>
     </g>
    </g>
   </g>
   <g id="matplotlib.axis_2">
    <g id="ytick_1">
     <g id="line2d_2">
      <defs>
       <path d="M 0 0 
L -3.5 0 
" id="m3faf48eece" style="stroke:#000000;stroke-width:0.8;"/>
      </defs>
      <g>
       <use style="stroke:#000000;stroke-width:0.8;" x="59.05" xlink:href="#m3faf48eece" y="328.2"/>
      </g>
     </g>
     <g id="text_2">
      <!-- 0 -->
      <g transform="translate(44.264688 333.210469)scale(0.14 -0.14)">
       <defs>
        <path d="M 27.4375 71.875 
Q 37.84375 71.875 43.703125 64.453125 
Q 50.6875 55.671875 50.6875 35.296875 
Q 50.6875 14.984375 43.65625 6.109375 
Q 37.84375 -1.21875 27.4375 -1.21875 
Q 17 -1.21875 10.59375 6.8125 
Q 4.203125 14.84375 4.203125 35.453125 
Q 4.203125 55.671875 11.234375 64.546875 
Q 17.046875 71.875 27.4375 71.875 
z
M 27.4375 60.5 
Q 24.953125 60.5 23 58.90625 
Q 21.046875 57.328125 19.96875 53.21875 
Q 18.5625 47.90625 18.5625 35.296875 
Q 18.5625 22.703125 19.828125 17.984375 
Q 21.09375 13.28125 23.015625 11.71875 
Q 24.953125 10.15625 27.4375 10.15625 
Q 29.9375 10.15625 31.890625 11.734375 
Q 33.84375 13.328125 34.90625 17.4375 
Q 36.328125 22.703125 36.328125 35.296875 
Q 36.328125 47.90625 35.0625 52.609375 
Q 33.796875 57.328125 31.859375 58.90625 
Q 29.9375 60.5 27.4375 60.5 
z
" id="Arial-BoldMT-48"/>
       </defs>
       <use xlink:href="#Arial-BoldMT-48"/>
      </g>
     </g>
    </g>
    <g id="ytick_2">
     <g id="line2d_3">
      <g>
       <use style="stroke:#000000;stroke-width:0.8;" x="59.05" xlink:href="#m3faf48eece" y="272.978988"/>
      </g>
     </g>
     <g id="text_3">
      <!-- 50 -->
      <g transform="translate(36.479375 277.989457)scale(0.14 -0.14)">
       <defs>
        <path d="M 4.4375 18.40625 
L 18.109375 19.828125 
Q 18.703125 15.1875 21.578125 12.46875 
Q 24.46875 9.765625 28.21875 9.765625 
Q 32.515625 9.765625 35.5 13.25 
Q 38.484375 16.75 38.484375 23.78125 
Q 38.484375 30.375 35.515625 33.671875 
Q 32.5625 36.96875 27.828125 36.96875 
Q 21.921875 36.96875 17.234375 31.734375 
L 6.109375 33.34375 
L 13.140625 70.609375 
L 49.421875 70.609375 
L 49.421875 57.765625 
L 23.53125 57.765625 
L 21.390625 45.609375 
Q 25.984375 47.90625 30.765625 47.90625 
Q 39.890625 47.90625 46.234375 41.265625 
Q 52.59375 34.625 52.59375 24.03125 
Q 52.59375 15.1875 47.46875 8.25 
Q 40.484375 -1.21875 28.078125 -1.21875 
Q 18.171875 -1.21875 11.921875 4.09375 
Q 5.671875 9.421875 4.4375 18.40625 
z
" id="Arial-BoldMT-53"/>
       </defs>
       <use xlink:href="#Arial-BoldMT-53"/>
       <use x="55.615234" xlink:href="#Arial-BoldMT-48"/>
      </g>
     </g>
    </g>
    <g id="ytick_3">
     <g id="line2d_4">
      <g>
       <use style="stroke:#000000;stroke-width:0.8;" x="59.05" xlink:href="#m3faf48eece" y="217.757976"/>
      </g>
     </g>
     <g id="text_4">
      <!-- 100 -->
      <g transform="translate(28.694063 222.768444)scale(0.14 -0.14)">
       <defs>
        <path d="M 39.359375 0 
L 25.640625 0 
L 25.640625 51.703125 
Q 18.109375 44.671875 7.90625 41.3125 
L 7.90625 53.765625 
Q 13.28125 55.515625 19.578125 60.421875 
Q 25.875 65.328125 28.21875 71.875 
L 39.359375 71.875 
z
" id="Arial-BoldMT-49"/>
       </defs>
       <use xlink:href="#Arial-BoldMT-49"/>
       <use x="55.615234" xlink:href="#Arial-BoldMT-48"/>
       <use x="111.230469" xlink:href="#Arial-BoldMT-48"/>
      </g>
     </g>
    </g>
    <g id="ytick_4">
     <g id="line2d_5">
      <g>
       <use style="stroke:#000000;stroke-width:0.8;" x="59.05" xlink:href="#m3faf48eece" y="162.536963"/>
      </g>
     </g>
     <g id="text_5">
      <!-- 150 -->
      <g transform="translate(28.694063 167.547432)scale(0.14 -0.14)">
       <use xlink:href="#Arial-BoldMT-49"/>
       <use x="55.615234" xlink:href="#Arial-BoldMT-53"/>
       <use x="111.230469" xlink:href="#Arial-BoldMT-48"/>
      </g>
     </g>
    </g>
    <g id="ytick_5">
     <g id="line2d_6">
      <g>
       <use style="stroke:#000000;stroke-width:0.8;" x="59.05" xlink:href="#m3faf48eece" y="107.315951"/>
      </g>
     </g>
     <g id="text_6">
      <!-- 200 -->
      <g transform="translate(28.694063 112.32642)scale(0.14 -0.14)">
       <defs>
        <path d="M 50.59375 12.75 
L 50.59375 0 
L 2.484375 0 
Q 3.265625 7.234375 7.171875 13.703125 
Q 11.078125 20.171875 22.609375 30.859375 
Q 31.890625 39.5 33.984375 42.578125 
Q 36.8125 46.828125 36.8125 50.984375 
Q 36.8125 55.5625 34.34375 58.03125 
Q 31.890625 60.5 27.546875 60.5 
Q 23.25 60.5 20.703125 57.90625 
Q 18.171875 55.328125 17.78125 49.3125 
L 4.109375 50.6875 
Q 5.328125 62.015625 11.765625 66.9375 
Q 18.21875 71.875 27.875 71.875 
Q 38.484375 71.875 44.53125 66.15625 
Q 50.59375 60.453125 50.59375 51.953125 
Q 50.59375 47.125 48.859375 42.75 
Q 47.125 38.375 43.359375 33.59375 
Q 40.875 30.421875 34.375 24.453125 
Q 27.875 18.5 26.140625 16.546875 
Q 24.421875 14.59375 23.34375 12.75 
z
" id="Arial-BoldMT-50"/>
       </defs>
       <use xlink:href="#Arial-BoldMT-50"/>
       <use x="55.615234" xlink:href="#Arial-BoldMT-48"/>
       <use x="111.230469" xlink:href="#Arial-BoldMT-48"/>
      </g>
     </g>
    </g>
    <g id="text_7">
     <!-- counts -->
     <g transform="translate(21.93125 221.8425)rotate(-90)scale(0.14 -0.14)">
      <defs>
       <path d="M 4 26.65625 
Q 4 33.5 7.375 39.890625 
Q 10.75 46.296875 16.921875 49.65625 
Q 23.09375 53.03125 30.71875 53.03125 
Q 42.484375 53.03125 50 45.390625 
Q 57.515625 37.75 57.515625 26.078125 
Q 57.515625 14.3125 49.921875 6.5625 
Q 42.328125 -1.171875 30.8125 -1.171875 
Q 23.6875 -1.171875 17.21875 2.046875 
Q 10.75 5.28125 7.375 11.5 
Q 4 17.71875 4 26.65625 
z
M 18.0625 25.921875 
Q 18.0625 18.21875 21.71875 14.109375 
Q 25.390625 10.015625 30.765625 10.015625 
Q 36.140625 10.015625 39.765625 14.109375 
Q 43.40625 18.21875 43.40625 26.03125 
Q 43.40625 33.640625 39.765625 37.734375 
Q 36.140625 41.84375 30.765625 41.84375 
Q 25.390625 41.84375 21.71875 37.734375 
Q 18.0625 33.640625 18.0625 25.921875 
z
" id="Arial-BoldMT-111"/>
       <path d="M 41.3125 0 
L 41.3125 7.765625 
Q 38.484375 3.609375 33.859375 1.21875 
Q 29.25 -1.171875 24.125 -1.171875 
Q 18.890625 -1.171875 14.734375 1.125 
Q 10.59375 3.421875 8.734375 7.5625 
Q 6.890625 11.71875 6.890625 19.046875 
L 6.890625 51.859375 
L 20.609375 51.859375 
L 20.609375 28.03125 
Q 20.609375 17.09375 21.359375 14.625 
Q 22.125 12.15625 24.125 10.71875 
Q 26.125 9.28125 29.203125 9.28125 
Q 32.71875 9.28125 35.5 11.203125 
Q 38.28125 13.140625 39.296875 15.984375 
Q 40.328125 18.84375 40.328125 29.984375 
L 40.328125 51.859375 
L 54.046875 51.859375 
L 54.046875 0 
z
" id="Arial-BoldMT-117"/>
       <path d="M 30.953125 51.859375 
L 30.953125 40.921875 
L 21.578125 40.921875 
L 21.578125 20.015625 
Q 21.578125 13.671875 21.84375 12.625 
Q 22.125 11.578125 23.078125 10.890625 
Q 24.03125 10.203125 25.390625 10.203125 
Q 27.296875 10.203125 30.90625 11.53125 
L 32.078125 0.875 
Q 27.296875 -1.171875 21.234375 -1.171875 
Q 17.53125 -1.171875 14.546875 0.0625 
Q 11.578125 1.3125 10.1875 3.296875 
Q 8.796875 5.28125 8.25 8.640625 
Q 7.8125 11.03125 7.8125 18.3125 
L 7.8125 40.921875 
L 1.515625 40.921875 
L 1.515625 51.859375 
L 7.8125 51.859375 
L 7.8125 62.15625 
L 21.578125 70.171875 
L 21.578125 51.859375 
z
" id="Arial-BoldMT-116"/>
       <path d="M 2.34375 14.796875 
L 16.109375 16.890625 
Q 17 12.890625 19.671875 10.8125 
Q 22.359375 8.734375 27.203125 8.734375 
Q 32.515625 8.734375 35.203125 10.6875 
Q 37.015625 12.0625 37.015625 14.359375 
Q 37.015625 15.921875 36.03125 16.9375 
Q 35.015625 17.921875 31.453125 18.75 
Q 14.84375 22.40625 10.40625 25.4375 
Q 4.25 29.640625 4.25 37.109375 
Q 4.25 43.84375 9.5625 48.4375 
Q 14.890625 53.03125 26.078125 53.03125 
Q 36.71875 53.03125 41.890625 49.5625 
Q 47.078125 46.09375 49.03125 39.3125 
L 36.078125 36.921875 
Q 35.25 39.9375 32.921875 41.546875 
Q 30.609375 43.171875 26.3125 43.171875 
Q 20.90625 43.171875 18.5625 41.65625 
Q 17 40.578125 17 38.875 
Q 17 37.40625 18.359375 36.375 
Q 20.21875 35.015625 31.171875 32.515625 
Q 42.140625 30.03125 46.484375 26.421875 
Q 50.78125 22.75 50.78125 16.21875 
Q 50.78125 9.078125 44.828125 3.953125 
Q 38.875 -1.171875 27.203125 -1.171875 
Q 16.609375 -1.171875 10.421875 3.125 
Q 4.25 7.421875 2.34375 14.796875 
z
" id="Arial-BoldMT-115"/>
      </defs>
      <use xlink:href="#Arial-BoldMT-99"/>
      <use x="55.615234" xlink:href="#Arial-BoldMT-111"/>
      <use x="116.699219" xlink:href="#Arial-BoldMT-117"/>
      <use x="177.783203" xlink:href="#Arial-BoldMT-110"/>
      <use x="238.867188" xlink:href="#Arial-BoldMT-116"/>
      <use x="272.167969" xlink:href="#Arial-BoldMT-115"/>
     </g>
    </g>
   </g>
   <g id="patch_6">
    <path d="M 59.05 328.2 
L 59.05 69.6 
" style="fill:none;stroke:#000000;stroke-linecap:square;stroke-linejoin:miter;stroke-width:0.8;"/>
   </g>
   <g id="patch_7">
    <path d="M 159.997059 328.2 
L 159.997059 69.6 
" style="fill:none;stroke:#000000;stroke-linecap:square;stroke-linejoin:miter;stroke-width:0.8;"/>
   </g>
   <g id="patch_8">
    <path d="M 59.05 328.2 
L 159.997059 328.2 
" style="fill:none;stroke:#000000;stroke-linecap:square;stroke-linejoin:miter;stroke-width:0.8;"/>
   </g>
   <g id="patch_9">
    <path d="M 59.05 69.6 
L 159.997059 69.6 
" style="fill:none;stroke:#000000;stroke-linecap:square;stroke-linejoin:miter;stroke-width:0.8;"/>
   </g>
   <g id="text_8">
    <!-- 81 -->
    <g transform="translate(101.738217 287.100043)scale(0.14 -0.14)">
     <defs>
      <path d="M 16.015625 38.625 
Q 10.6875 40.875 8.265625 44.796875 
Q 5.859375 48.734375 5.859375 53.421875 
Q 5.859375 61.421875 11.453125 66.640625 
Q 17.046875 71.875 27.34375 71.875 
Q 37.546875 71.875 43.1875 66.640625 
Q 48.828125 61.421875 48.828125 53.421875 
Q 48.828125 48.4375 46.234375 44.546875 
Q 43.65625 40.671875 38.96875 38.625 
Q 44.921875 36.234375 48.015625 31.640625 
Q 51.125 27.046875 51.125 21.046875 
Q 51.125 11.140625 44.796875 4.9375 
Q 38.484375 -1.265625 27.984375 -1.265625 
Q 18.21875 -1.265625 11.71875 3.859375 
Q 4.046875 9.90625 4.046875 20.453125 
Q 4.046875 26.265625 6.921875 31.125 
Q 9.8125 35.984375 16.015625 38.625 
z
M 18.84375 52.4375 
Q 18.84375 48.34375 21.15625 46.046875 
Q 23.484375 43.75 27.34375 43.75 
Q 31.25 43.75 33.59375 46.0625 
Q 35.9375 48.390625 35.9375 52.484375 
Q 35.9375 56.34375 33.609375 58.65625 
Q 31.296875 60.984375 27.484375 60.984375 
Q 23.53125 60.984375 21.1875 58.640625 
Q 18.84375 56.296875 18.84375 52.4375 
z
M 17.578125 21.78125 
Q 17.578125 16.109375 20.484375 12.9375 
Q 23.390625 9.765625 27.734375 9.765625 
Q 31.984375 9.765625 34.765625 12.8125 
Q 37.546875 15.875 37.546875 21.625 
Q 37.546875 26.65625 34.71875 29.703125 
Q 31.890625 32.765625 27.546875 32.765625 
Q 22.515625 32.765625 20.046875 29.296875 
Q 17.578125 25.828125 17.578125 21.78125 
z
" id="Arial-BoldMT-56"/>
     </defs>
     <use xlink:href="#Arial-BoldMT-56"/>
     <use x="55.615234" xlink:href="#Arial-BoldMT-49"/>
    </g>
   </g>
   <g id="text_9">
    <!-- 77 -->
    <g transform="translate(101.738217 199.850843)scale(0.14 -0.14)">
     <defs>
      <path d="M 4.25 57.859375 
L 4.25 70.609375 
L 51.171875 70.609375 
L 51.171875 60.640625 
Q 45.359375 54.9375 39.34375 44.234375 
Q 33.34375 33.546875 30.1875 21.5 
Q 27.046875 9.46875 27.09375 0 
L 13.875 0 
Q 14.203125 14.84375 19.984375 30.265625 
Q 25.78125 45.703125 35.453125 57.859375 
z
" id="Arial-BoldMT-55"/>
     </defs>
     <use xlink:href="#Arial-BoldMT-55"/>
     <use x="55.615234" xlink:href="#Arial-BoldMT-55"/>
    </g>
   </g>
   <g id="text_10">
    <!-- 65 -->
    <g transform="translate(101.738217 121.437006)scale(0.14 -0.14)">
     <defs>
      <path d="M 50.734375 54.046875 
L 37.453125 52.59375 
Q 36.96875 56.6875 34.90625 58.640625 
Q 32.859375 60.59375 29.59375 60.59375 
Q 25.25 60.59375 22.234375 56.6875 
Q 19.234375 52.78125 18.453125 40.4375 
Q 23.578125 46.484375 31.203125 46.484375 
Q 39.796875 46.484375 45.921875 39.9375 
Q 52.046875 33.40625 52.046875 23.046875 
Q 52.046875 12.0625 45.59375 5.421875 
Q 39.15625 -1.21875 29.046875 -1.21875 
Q 18.21875 -1.21875 11.234375 7.203125 
Q 4.25 15.625 4.25 34.8125 
Q 4.25 54.5 11.515625 63.1875 
Q 18.796875 71.875 30.421875 71.875 
Q 38.578125 71.875 43.921875 67.3125 
Q 49.265625 62.75 50.734375 54.046875 
z
M 19.625 24.125 
Q 19.625 17.4375 22.703125 13.796875 
Q 25.78125 10.15625 29.734375 10.15625 
Q 33.546875 10.15625 36.078125 13.125 
Q 38.625 16.109375 38.625 22.90625 
Q 38.625 29.890625 35.890625 33.125 
Q 33.15625 36.375 29.046875 36.375 
Q 25.09375 36.375 22.359375 33.265625 
Q 19.625 30.171875 19.625 24.125 
z
" id="Arial-BoldMT-54"/>
     </defs>
     <use xlink:href="#Arial-BoldMT-54"/>
     <use x="55.615234" xlink:href="#Arial-BoldMT-53"/>
    </g>
   </g>
   <g id="legend_1">
    <g id="patch_10">
     <path d="M 61.589559 22.516875 
L 85.589559 22.516875 
L 85.589559 14.116875 
L 61.589559 14.116875 
z
" style="fill:#b8d2ef;stroke:#ffffff;stroke-linejoin:miter;"/>
    </g>
    <g id="text_11">
     <!-- inhouse -->
     <g transform="translate(95.189559 22.516875)scale(0.12 -0.12)">
      <defs>
       <path d="M 7.171875 58.890625 
L 7.171875 71.578125 
L 20.90625 71.578125 
L 20.90625 58.890625 
z
M 7.171875 0 
L 7.171875 51.859375 
L 20.90625 51.859375 
L 20.90625 0 
z
" id="Arial-BoldMT-105"/>
       <path d="M 20.84375 71.578125 
L 20.84375 45.265625 
Q 27.484375 53.03125 36.71875 53.03125 
Q 41.453125 53.03125 45.265625 51.265625 
Q 49.078125 49.515625 51 46.78125 
Q 52.9375 44.046875 53.640625 40.71875 
Q 54.34375 37.40625 54.34375 30.421875 
L 54.34375 0 
L 40.625 0 
L 40.625 27.390625 
Q 40.625 35.546875 39.84375 37.734375 
Q 39.0625 39.9375 37.078125 41.234375 
Q 35.109375 42.53125 32.125 42.53125 
Q 28.71875 42.53125 26.03125 40.859375 
Q 23.34375 39.203125 22.09375 35.859375 
Q 20.84375 32.515625 20.84375 25.984375 
L 20.84375 0 
L 7.125 0 
L 7.125 71.578125 
z
" id="Arial-BoldMT-104"/>
      </defs>
      <use xlink:href="#Arial-BoldMT-105"/>
      <use x="27.783203" xlink:href="#Arial-BoldMT-110"/>
      <use x="88.867188" xlink:href="#Arial-BoldMT-104"/>
      <use x="149.951172" xlink:href="#Arial-BoldMT-111"/>
      <use x="211.035156" xlink:href="#Arial-BoldMT-117"/>
      <use x="272.119141" xlink:href="#Arial-BoldMT-115"/>
      <use x="327.734375" xlink:href="#Arial-BoldMT-101"/>
     </g>
    </g>
    <g id="patch_11">
     <path d="M 61.589559 39.474375 
L 85.589559 39.474375 
L 85.589559 31.074375 
L 61.589559 31.074375 
z
" style="fill:#8cb5d9;stroke:#ffffff;stroke-linejoin:miter;"/>
    </g>
    <g id="text_12">
     <!-- literature -->
     <g transform="translate(95.189559 39.474375)scale(0.12 -0.12)">
      <defs>
       <path d="M 7.171875 0 
L 7.171875 71.578125 
L 20.90625 71.578125 
L 20.90625 0 
z
" id="Arial-BoldMT-108"/>
       <path d="M 17.4375 36.03125 
L 4.984375 38.28125 
Q 7.078125 45.796875 12.203125 49.40625 
Q 17.328125 53.03125 27.4375 53.03125 
Q 36.625 53.03125 41.109375 50.859375 
Q 45.609375 48.6875 47.4375 45.34375 
Q 49.265625 42 49.265625 33.0625 
L 49.125 17.046875 
Q 49.125 10.203125 49.78125 6.953125 
Q 50.4375 3.71875 52.25 0 
L 38.671875 0 
Q 38.140625 1.375 37.359375 4.046875 
Q 37.015625 5.28125 36.859375 5.671875 
Q 33.34375 2.25 29.34375 0.53125 
Q 25.34375 -1.171875 20.796875 -1.171875 
Q 12.796875 -1.171875 8.171875 3.171875 
Q 3.5625 7.515625 3.5625 14.15625 
Q 3.5625 18.5625 5.65625 22 
Q 7.765625 25.4375 11.546875 27.265625 
Q 15.328125 29.109375 22.46875 30.46875 
Q 32.078125 32.28125 35.796875 33.84375 
L 35.796875 35.203125 
Q 35.796875 39.15625 33.84375 40.84375 
Q 31.890625 42.53125 26.46875 42.53125 
Q 22.796875 42.53125 20.75 41.09375 
Q 18.703125 39.65625 17.4375 36.03125 
z
M 35.796875 24.90625 
Q 33.15625 24.03125 27.4375 22.796875 
Q 21.734375 21.578125 19.96875 20.40625 
Q 17.28125 18.5 17.28125 15.578125 
Q 17.28125 12.703125 19.421875 10.59375 
Q 21.578125 8.5 24.90625 8.5 
Q 28.609375 8.5 31.984375 10.9375 
Q 34.46875 12.796875 35.25 15.484375 
Q 35.796875 17.234375 35.796875 22.171875 
z
" id="Arial-BoldMT-97"/>
      </defs>
      <use xlink:href="#Arial-BoldMT-108"/>
      <use x="27.783203" xlink:href="#Arial-BoldMT-105"/>
      <use x="55.566406" xlink:href="#Arial-BoldMT-116"/>
      <use x="88.867188" xlink:href="#Arial-BoldMT-101"/>
      <use x="144.482422" xlink:href="#Arial-BoldMT-114"/>
      <use x="183.398438" xlink:href="#Arial-BoldMT-97"/>
      <use x="239.013672" xlink:href="#Arial-BoldMT-116"/>
      <use x="272.314453" xlink:href="#Arial-BoldMT-117"/>
      <use x="333.398438" xlink:href="#Arial-BoldMT-114"/>
      <use x="372.314453" xlink:href="#Arial-BoldMT-101"/>
     </g>
    </g>
    <g id="patch_12">
     <path d="M 61.589559 56.431875 
L 85.589559 56.431875 
L 85.589559 48.031875 
L 61.589559 48.031875 
z
" style="fill:#659abd;stroke:#ffffff;stroke-linejoin:miter;"/>
    </g>
    <g id="text_13">
     <!-- predicted -->
     <g transform="translate(95.189559 56.431875)scale(0.12 -0.12)">
      <defs>
       <path d="M 6.78125 51.859375 
L 19.578125 51.859375 
L 19.578125 44.234375 
Q 22.078125 48.140625 26.3125 50.578125 
Q 30.5625 53.03125 35.75 53.03125 
Q 44.78125 53.03125 51.078125 45.953125 
Q 57.375 38.875 57.375 26.21875 
Q 57.375 13.234375 51.015625 6.03125 
Q 44.671875 -1.171875 35.640625 -1.171875 
Q 31.34375 -1.171875 27.84375 0.53125 
Q 24.359375 2.25 20.515625 6.390625 
L 20.515625 -19.734375 
L 6.78125 -19.734375 
z
M 20.359375 26.8125 
Q 20.359375 18.0625 23.828125 13.890625 
Q 27.296875 9.71875 32.28125 9.71875 
Q 37.0625 9.71875 40.234375 13.546875 
Q 43.40625 17.390625 43.40625 26.125 
Q 43.40625 34.28125 40.125 38.234375 
Q 36.859375 42.1875 32.03125 42.1875 
Q 27 42.1875 23.671875 38.296875 
Q 20.359375 34.421875 20.359375 26.8125 
z
" id="Arial-BoldMT-112"/>
       <path d="M 54.734375 0 
L 42 0 
L 42 7.625 
Q 38.8125 3.171875 34.484375 1 
Q 30.171875 -1.171875 25.78125 -1.171875 
Q 16.84375 -1.171875 10.46875 6.03125 
Q 4.109375 13.234375 4.109375 26.125 
Q 4.109375 39.3125 10.296875 46.171875 
Q 16.5 53.03125 25.984375 53.03125 
Q 34.671875 53.03125 41.015625 45.796875 
L 41.015625 71.578125 
L 54.734375 71.578125 
z
M 18.109375 27.046875 
Q 18.109375 18.75 20.40625 15.046875 
Q 23.734375 9.671875 29.6875 9.671875 
Q 34.421875 9.671875 37.734375 13.6875 
Q 41.0625 17.71875 41.0625 25.734375 
Q 41.0625 34.671875 37.84375 38.59375 
Q 34.625 42.53125 29.59375 42.53125 
Q 24.703125 42.53125 21.40625 38.640625 
Q 18.109375 34.765625 18.109375 27.046875 
z
" id="Arial-BoldMT-100"/>
      </defs>
      <use xlink:href="#Arial-BoldMT-112"/>
      <use x="61.083984" xlink:href="#Arial-BoldMT-114"/>
      <use x="100" xlink:href="#Arial-BoldMT-101"/>
      <use x="155.615234" xlink:href="#Arial-BoldMT-100"/>
      <use x="216.699219" xlink:href="#Arial-BoldMT-105"/>
      <use x="244.482422" xlink:href="#Arial-BoldMT-99"/>
      <use x="300.097656" xlink:href="#Arial-BoldMT-116"/>
      <use x="333.398438" xlink:href="#Arial-BoldMT-101"/>
      <use x="389.013672" xlink:href="#Arial-BoldMT-100"/>
     </g>
    </g>
   </g>
  </g>
  <g id="axes_2">
   <g id="patch_13">
    <path d="M 189.651471 328.2 
L 290.598529 328.2 
L 290.598529 69.6 
L 189.651471 69.6 
z
" style="fill:#ffffff;"/>
   </g>
   <g id="patch_14">
    <path clip-path="url(#pb5b6a16e3c)" d="M 194.239973 328.2 
L 286.010027 328.2 
L 286.010027 244.264061 
L 194.239973 244.264061 
z
" style="fill:#b8d2ef;stroke:#ffffff;stroke-linejoin:miter;"/>
   </g>
   <g id="patch_15">
    <path clip-path="url(#pb5b6a16e3c)" d="M 194.239973 244.264061 
L 286.010027 244.264061 
L 286.010027 81.914286 
L 194.239973 81.914286 
z
" style="fill:#8cb5d9;stroke:#ffffff;stroke-linejoin:miter;"/>
   </g>
   <g id="matplotlib.axis_3">
    <g id="xtick_2">
     <g id="line2d_7">
      <g>
       <use style="stroke:#000000;stroke-width:0.8;" x="240.125" xlink:href="#m98ebf163eb" y="328.2"/>
      </g>
     </g>
     <g id="text_14">
      <!-- mode -->
      <g transform="translate(221.456875 345.220937)scale(0.14 -0.14)">
       <defs>
        <path d="M 6.15625 51.859375 
L 18.796875 51.859375 
L 18.796875 44.78125 
Q 25.59375 53.03125 34.96875 53.03125 
Q 39.9375 53.03125 43.59375 50.96875 
Q 47.265625 48.921875 49.609375 44.78125 
Q 53.03125 48.921875 56.984375 50.96875 
Q 60.9375 53.03125 65.4375 53.03125 
Q 71.140625 53.03125 75.09375 50.703125 
Q 79.046875 48.390625 81 43.890625 
Q 82.421875 40.578125 82.421875 33.15625 
L 82.421875 0 
L 68.703125 0 
L 68.703125 29.640625 
Q 68.703125 37.359375 67.28125 39.59375 
Q 65.375 42.53125 61.421875 42.53125 
Q 58.546875 42.53125 56 40.765625 
Q 53.46875 39.015625 52.34375 35.625 
Q 51.21875 32.234375 51.21875 24.90625 
L 51.21875 0 
L 37.5 0 
L 37.5 28.421875 
Q 37.5 35.984375 36.765625 38.171875 
Q 36.03125 40.375 34.484375 41.453125 
Q 32.953125 42.53125 30.328125 42.53125 
Q 27.15625 42.53125 24.609375 40.8125 
Q 22.078125 39.109375 20.96875 35.890625 
Q 19.875 32.671875 19.875 25.203125 
L 19.875 0 
L 6.15625 0 
z
" id="Arial-BoldMT-109"/>
       </defs>
       <use xlink:href="#Arial-BoldMT-109"/>
       <use x="88.916016" xlink:href="#Arial-BoldMT-111"/>
       <use x="150" xlink:href="#Arial-BoldMT-100"/>
       <use x="211.083984" xlink:href="#Arial-BoldMT-101"/>
      </g>
     </g>
    </g>
   </g>
   <g id="matplotlib.axis_4">
    <g id="ytick_6">
     <g id="line2d_8">
      <g>
       <use style="stroke:#000000;stroke-width:0.8;" x="189.651471" xlink:href="#m3faf48eece" y="328.2"/>
      </g>
     </g>
    </g>
    <g id="ytick_7">
     <g id="line2d_9">
      <g>
       <use style="stroke:#000000;stroke-width:0.8;" x="189.651471" xlink:href="#m3faf48eece" y="272.978988"/>
      </g>
     </g>
    </g>
    <g id="ytick_8">
     <g id="line2d_10">
      <g>
       <use style="stroke:#000000;stroke-width:0.8;" x="189.651471" xlink:href="#m3faf48eece" y="217.757976"/>
      </g>
     </g>
    </g>
    <g id="ytick_9">
     <g id="line2d_11">
      <g>
       <use style="stroke:#000000;stroke-width:0.8;" x="189.651471" xlink:href="#m3faf48eece" y="162.536963"/>
      </g>
     </g>
    </g>
    <g id="ytick_10">
     <g id="line2d_12">
      <g>
       <use style="stroke:#000000;stroke-width:0.8;" x="189.651471" xlink:href="#m3faf48eece" y="107.315951"/>
      </g>
     </g>
    </g>
   </g>
   <g id="patch_16">
    <path d="M 189.651471 328.2 
L 189.651471 69.6 
" style="fill:none;stroke:#000000;stroke-linecap:square;stroke-linejoin:miter;stroke-width:0.8;"/>
   </g>
   <g id="patch_17">
    <path d="M 290.598529 328.2 
L 290.598529 69.6 
" style="fill:none;stroke:#000000;stroke-linecap:square;stroke-linejoin:miter;stroke-width:0.8;"/>
   </g>
   <g id="patch_18">
    <path d="M 189.651471 328.2 
L 290.598529 328.2 
" style="fill:none;stroke:#000000;stroke-linecap:square;stroke-linejoin:miter;stroke-width:0.8;"/>
   </g>
   <g id="patch_19">
    <path d="M 189.651471 69.6 
L 290.598529 69.6 
" style="fill:none;stroke:#000000;stroke-linecap:square;stroke-linejoin:miter;stroke-width:0.8;"/>
   </g>
   <g id="text_15">
    <!-- 76 -->
    <g transform="translate(232.339687 289.861093)scale(0.14 -0.14)">
     <use xlink:href="#Arial-BoldMT-55"/>
     <use x="55.615234" xlink:href="#Arial-BoldMT-54"/>
    </g>
   </g>
   <g id="text_16">
    <!-- 147 -->
    <g transform="translate(228.447031 166.718236)scale(0.14 -0.14)">
     <defs>
      <path d="M 31.15625 0 
L 31.15625 14.40625 
L 1.859375 14.40625 
L 1.859375 26.421875 
L 32.90625 71.875 
L 44.4375 71.875 
L 44.4375 26.46875 
L 53.328125 26.46875 
L 53.328125 14.40625 
L 44.4375 14.40625 
L 44.4375 0 
z
M 31.15625 26.46875 
L 31.15625 50.921875 
L 14.703125 26.46875 
z
" id="Arial-BoldMT-52"/>
     </defs>
     <use xlink:href="#Arial-BoldMT-49"/>
     <use x="55.615234" xlink:href="#Arial-BoldMT-52"/>
     <use x="111.230469" xlink:href="#Arial-BoldMT-55"/>
    </g>
   </g>
   <g id="legend_2">
    <g id="patch_20">
     <path d="M 197.517904 39.316875 
L 221.517904 39.316875 
L 221.517904 30.916875 
L 197.517904 30.916875 
z
" style="fill:#b8d2ef;stroke:#ffffff;stroke-linejoin:miter;"/>
    </g>
    <g id="text_17">
     <!-- positive -->
     <g transform="translate(231.117904 39.316875)scale(0.12 -0.12)">
      <defs>
       <path d="M 21.4375 0 
L 0.53125 51.859375 
L 14.9375 51.859375 
L 24.703125 25.390625 
L 27.546875 16.546875 
Q 28.65625 19.921875 28.953125 21 
Q 29.640625 23.1875 30.421875 25.390625 
L 40.28125 51.859375 
L 54.390625 51.859375 
L 33.796875 0 
z
" id="Arial-BoldMT-118"/>
      </defs>
      <use xlink:href="#Arial-BoldMT-112"/>
      <use x="61.083984" xlink:href="#Arial-BoldMT-111"/>
      <use x="122.167969" xlink:href="#Arial-BoldMT-115"/>
      <use x="177.783203" xlink:href="#Arial-BoldMT-105"/>
      <use x="205.566406" xlink:href="#Arial-BoldMT-116"/>
      <use x="238.867188" xlink:href="#Arial-BoldMT-105"/>
      <use x="266.650391" xlink:href="#Arial-BoldMT-118"/>
      <use x="322.265625" xlink:href="#Arial-BoldMT-101"/>
     </g>
    </g>
    <g id="patch_21">
     <path d="M 197.517904 56.274375 
L 221.517904 56.274375 
L 221.517904 47.874375 
L 197.517904 47.874375 
z
" style="fill:#8cb5d9;stroke:#ffffff;stroke-linejoin:miter;"/>
    </g>
    <g id="text_18">
     <!-- negative -->
     <g transform="translate(231.117904 56.274375)scale(0.12 -0.12)">
      <defs>
       <path d="M 5.90625 -3.421875 
L 21.578125 -5.328125 
Q 21.96875 -8.0625 23.390625 -9.078125 
Q 25.34375 -10.546875 29.546875 -10.546875 
Q 34.90625 -10.546875 37.59375 -8.9375 
Q 39.40625 -7.859375 40.328125 -5.46875 
Q 40.96875 -3.765625 40.96875 0.828125 
L 40.96875 8.40625 
Q 34.8125 0 25.4375 0 
Q 14.984375 0 8.890625 8.84375 
Q 4.109375 15.828125 4.109375 26.21875 
Q 4.109375 39.265625 10.375 46.140625 
Q 16.65625 53.03125 25.984375 53.03125 
Q 35.59375 53.03125 41.84375 44.578125 
L 41.84375 51.859375 
L 54.6875 51.859375 
L 54.6875 5.328125 
Q 54.6875 -3.859375 53.171875 -8.390625 
Q 51.65625 -12.9375 48.921875 -15.515625 
Q 46.1875 -18.109375 41.625 -19.578125 
Q 37.0625 -21.046875 30.078125 -21.046875 
Q 16.890625 -21.046875 11.375 -16.53125 
Q 5.859375 -12.015625 5.859375 -5.078125 
Q 5.859375 -4.390625 5.90625 -3.421875 
z
M 18.171875 27 
Q 18.171875 18.75 21.359375 14.90625 
Q 24.5625 11.078125 29.25 11.078125 
Q 34.28125 11.078125 37.75 15.015625 
Q 41.21875 18.953125 41.21875 26.65625 
Q 41.21875 34.71875 37.890625 38.625 
Q 34.578125 42.53125 29.5 42.53125 
Q 24.5625 42.53125 21.359375 38.6875 
Q 18.171875 34.859375 18.171875 27 
z
" id="Arial-BoldMT-103"/>
      </defs>
      <use xlink:href="#Arial-BoldMT-110"/>
      <use x="61.083984" xlink:href="#Arial-BoldMT-101"/>
      <use x="116.699219" xlink:href="#Arial-BoldMT-103"/>
      <use x="177.783203" xlink:href="#Arial-BoldMT-97"/>
      <use x="233.398438" xlink:href="#Arial-BoldMT-116"/>
      <use x="266.699219" xlink:href="#Arial-BoldMT-105"/>
      <use x="294.482422" xlink:href="#Arial-BoldMT-118"/>
      <use x="350.097656" xlink:href="#Arial-BoldMT-101"/>
     </g>
    </g>
   </g>
  </g>
  <g id="axes_3">
   <g id="patch_22">
    <path d="M 320.252941 328.2 
L 421.2 328.2 
L 421.2 69.6 
L 320.252941 69.6 
z
" style="fill:#ffffff;"/>
   </g>
   <g id="patch_23">
    <path clip-path="url(#p7199ac108d)" d="M 324.841444 328.2 
L 416.611497 328.2 
L 416.611497 115.046893 
L 324.841444 115.046893 
z
" style="fill:#b8d2ef;stroke:#ffffff;stroke-linejoin:miter;"/>
   </g>
   <g id="patch_24">
    <path clip-path="url(#p7199ac108d)" d="M 324.841444 115.046893 
L 416.611497 115.046893 
L 416.611497 81.914286 
L 324.841444 81.914286 
z
" style="fill:#8cb5d9;stroke:#ffffff;stroke-linejoin:miter;"/>
   </g>
   <g id="matplotlib.axis_5">
    <g id="xtick_3">
     <g id="line2d_13">
      <g>
       <use style="stroke:#000000;stroke-width:0.8;" x="370.726471" xlink:href="#m98ebf163eb" y="328.2"/>
      </g>
     </g>
     <g id="text_19">
      <!-- isobarics -->
      <g transform="translate(339.991002 345.220937)scale(0.14 -0.14)">
       <defs>
        <path d="M 6.59375 0 
L 6.59375 71.578125 
L 20.3125 71.578125 
L 20.3125 45.796875 
Q 26.65625 53.03125 35.359375 53.03125 
Q 44.828125 53.03125 51.03125 46.171875 
Q 57.234375 39.3125 57.234375 26.46875 
Q 57.234375 13.1875 50.90625 6 
Q 44.578125 -1.171875 35.546875 -1.171875 
Q 31.109375 -1.171875 26.78125 1.046875 
Q 22.46875 3.265625 19.34375 7.625 
L 19.34375 0 
z
M 20.21875 27.046875 
Q 20.21875 19 22.75 15.140625 
Q 26.3125 9.671875 32.234375 9.671875 
Q 36.765625 9.671875 39.96875 13.546875 
Q 43.171875 17.4375 43.171875 25.78125 
Q 43.171875 34.671875 39.9375 38.59375 
Q 36.71875 42.53125 31.6875 42.53125 
Q 26.765625 42.53125 23.484375 38.6875 
Q 20.21875 34.859375 20.21875 27.046875 
z
" id="Arial-BoldMT-98"/>
       </defs>
       <use xlink:href="#Arial-BoldMT-105"/>
       <use x="27.783203" xlink:href="#Arial-BoldMT-115"/>
       <use x="83.398438" xlink:href="#Arial-BoldMT-111"/>
       <use x="144.482422" xlink:href="#Arial-BoldMT-98"/>
       <use x="205.566406" xlink:href="#Arial-BoldMT-97"/>
       <use x="261.181641" xlink:href="#Arial-BoldMT-114"/>
       <use x="300.097656" xlink:href="#Arial-BoldMT-105"/>
       <use x="327.880859" xlink:href="#Arial-BoldMT-99"/>
       <use x="383.496094" xlink:href="#Arial-BoldMT-115"/>
      </g>
     </g>
    </g>
   </g>
   <g id="matplotlib.axis_6">
    <g id="ytick_11">
     <g id="line2d_14">
      <g>
       <use style="stroke:#000000;stroke-width:0.8;" x="320.252941" xlink:href="#m3faf48eece" y="328.2"/>
      </g>
     </g>
    </g>
    <g id="ytick_12">
     <g id="line2d_15">
      <g>
       <use style="stroke:#000000;stroke-width:0.8;" x="320.252941" xlink:href="#m3faf48eece" y="272.978988"/>
      </g>
     </g>
    </g>
    <g id="ytick_13">
     <g id="line2d_16">
      <g>
       <use style="stroke:#000000;stroke-width:0.8;" x="320.252941" xlink:href="#m3faf48eece" y="217.757976"/>
      </g>
     </g>
    </g>
    <g id="ytick_14">
     <g id="line2d_17">
      <g>
       <use style="stroke:#000000;stroke-width:0.8;" x="320.252941" xlink:href="#m3faf48eece" y="162.536963"/>
      </g>
     </g>
    </g>
    <g id="ytick_15">
     <g id="line2d_18">
      <g>
       <use style="stroke:#000000;stroke-width:0.8;" x="320.252941" xlink:href="#m3faf48eece" y="107.315951"/>
      </g>
     </g>
    </g>
   </g>
   <g id="patch_25">
    <path d="M 320.252941 328.2 
L 320.252941 69.6 
" style="fill:none;stroke:#000000;stroke-linecap:square;stroke-linejoin:miter;stroke-width:0.8;"/>
   </g>
   <g id="patch_26">
    <path d="M 421.2 328.2 
L 421.2 69.6 
" style="fill:none;stroke:#000000;stroke-linecap:square;stroke-linejoin:miter;stroke-width:0.8;"/>
   </g>
   <g id="patch_27">
    <path d="M 320.252941 328.2 
L 421.2 328.2 
" style="fill:none;stroke:#000000;stroke-linecap:square;stroke-linejoin:miter;stroke-width:0.8;"/>
   </g>
   <g id="patch_28">
    <path d="M 320.252941 69.6 
L 421.2 69.6 
" style="fill:none;stroke:#000000;stroke-linecap:square;stroke-linejoin:miter;stroke-width:0.8;"/>
   </g>
   <g id="text_20">
    <!-- 193 -->
    <g transform="translate(359.048502 225.252509)scale(0.14 -0.14)">
     <defs>
      <path d="M 4.546875 16.546875 
L 17.828125 18.015625 
Q 18.3125 13.96875 20.359375 12.015625 
Q 22.40625 10.0625 25.78125 10.0625 
Q 30.03125 10.0625 33 13.96875 
Q 35.984375 17.875 36.8125 30.171875 
Q 31.640625 24.171875 23.875 24.171875 
Q 15.4375 24.171875 9.296875 30.6875 
Q 3.171875 37.203125 3.171875 47.65625 
Q 3.171875 58.546875 9.640625 65.203125 
Q 16.109375 71.875 26.125 71.875 
Q 37.015625 71.875 44 63.453125 
Q 50.984375 55.03125 50.984375 35.75 
Q 50.984375 16.109375 43.703125 7.421875 
Q 36.421875 -1.265625 24.75 -1.265625 
Q 16.359375 -1.265625 11.171875 3.203125 
Q 6 7.671875 4.546875 16.546875 
z
M 35.59375 46.53125 
Q 35.59375 53.171875 32.546875 56.828125 
Q 29.5 60.5 25.484375 60.5 
Q 21.6875 60.5 19.171875 57.5 
Q 16.65625 54.5 16.65625 47.65625 
Q 16.65625 40.71875 19.390625 37.46875 
Q 22.125 34.234375 26.21875 34.234375 
Q 30.171875 34.234375 32.875 37.359375 
Q 35.59375 40.484375 35.59375 46.53125 
z
" id="Arial-BoldMT-57"/>
      <path d="M 3.765625 19 
L 17.046875 20.609375 
Q 17.671875 15.53125 20.453125 12.84375 
Q 23.25 10.15625 27.203125 10.15625 
Q 31.453125 10.15625 34.34375 13.375 
Q 37.25 16.609375 37.25 22.078125 
Q 37.25 27.25 34.46875 30.265625 
Q 31.6875 33.296875 27.6875 33.296875 
Q 25.046875 33.296875 21.390625 32.28125 
L 22.90625 43.453125 
Q 28.46875 43.3125 31.390625 45.875 
Q 34.328125 48.4375 34.328125 52.6875 
Q 34.328125 56.296875 32.171875 58.4375 
Q 30.03125 60.59375 26.46875 60.59375 
Q 22.953125 60.59375 20.453125 58.15625 
Q 17.96875 55.71875 17.4375 51.03125 
L 4.78125 53.171875 
Q 6.109375 59.671875 8.765625 63.546875 
Q 11.421875 67.4375 16.1875 69.65625 
Q 20.953125 71.875 26.859375 71.875 
Q 36.96875 71.875 43.0625 65.4375 
Q 48.09375 60.15625 48.09375 53.515625 
Q 48.09375 44.09375 37.796875 38.484375 
Q 43.953125 37.15625 47.625 32.5625 
Q 51.3125 27.984375 51.3125 21.484375 
Q 51.3125 12.0625 44.421875 5.421875 
Q 37.546875 -1.21875 27.296875 -1.21875 
Q 17.578125 -1.21875 11.171875 4.375 
Q 4.78125 9.96875 3.765625 19 
z
" id="Arial-BoldMT-51"/>
     </defs>
     <use xlink:href="#Arial-BoldMT-49"/>
     <use x="55.615234" xlink:href="#Arial-BoldMT-57"/>
     <use x="111.230469" xlink:href="#Arial-BoldMT-51"/>
    </g>
   </g>
   <g id="text_21">
    <!-- 30 -->
    <g transform="translate(362.941158 102.109652)scale(0.14 -0.14)">
     <use xlink:href="#Arial-BoldMT-51"/>
     <use x="55.615234" xlink:href="#Arial-BoldMT-48"/>
    </g>
   </g>
   <g id="legend_3">
    <g id="patch_29">
     <path d="M 308.814375 39.474375 
L 332.814375 39.474375 
L 332.814375 31.074375 
L 308.814375 31.074375 
z
" style="fill:#b8d2ef;stroke:#ffffff;stroke-linejoin:miter;"/>
    </g>
    <g id="text_22">
     <!-- unique -->
     <g transform="translate(342.414375 39.474375)scale(0.12 -0.12)">
      <defs>
       <path d="M 41.0625 -19.734375 
L 41.0625 6.34375 
Q 38.375 2.875 34.375 0.84375 
Q 30.375 -1.171875 25.734375 -1.171875 
Q 16.890625 -1.171875 11.1875 5.46875 
Q 4.4375 13.234375 4.4375 26.515625 
Q 4.4375 39.015625 10.765625 46.015625 
Q 17.09375 53.03125 26.46875 53.03125 
Q 31.640625 53.03125 35.421875 50.828125 
Q 39.203125 48.640625 42.140625 44.1875 
L 42.140625 51.859375 
L 54.78125 51.859375 
L 54.78125 -19.734375 
z
M 41.5 26.5625 
Q 41.5 34.515625 38.25 38.390625 
Q 35.015625 42.28125 30.125 42.28125 
Q 25.140625 42.28125 21.796875 38.328125 
Q 18.453125 34.375 18.453125 25.78125 
Q 18.453125 17.234375 21.671875 13.453125 
Q 24.90625 9.671875 29.640625 9.671875 
Q 34.375 9.671875 37.9375 13.921875 
Q 41.5 18.171875 41.5 26.5625 
z
" id="Arial-BoldMT-113"/>
      </defs>
      <use xlink:href="#Arial-BoldMT-117"/>
      <use x="61.083984" xlink:href="#Arial-BoldMT-110"/>
      <use x="122.167969" xlink:href="#Arial-BoldMT-105"/>
      <use x="149.951172" xlink:href="#Arial-BoldMT-113"/>
      <use x="211.035156" xlink:href="#Arial-BoldMT-117"/>
      <use x="272.119141" xlink:href="#Arial-BoldMT-101"/>
     </g>
    </g>
    <g id="patch_30">
     <path d="M 308.814375 56.431875 
L 332.814375 56.431875 
L 332.814375 48.031875 
L 308.814375 48.031875 
z
" style="fill:#8cb5d9;stroke:#ffffff;stroke-linejoin:miter;"/>
    </g>
    <g id="text_23">
     <!-- convolution -->
     <g transform="translate(342.414375 56.431875)scale(0.12 -0.12)">
      <use xlink:href="#Arial-BoldMT-99"/>
      <use x="55.615234" xlink:href="#Arial-BoldMT-111"/>
      <use x="116.699219" xlink:href="#Arial-BoldMT-110"/>
      <use x="177.783203" xlink:href="#Arial-BoldMT-118"/>
      <use x="233.398438" xlink:href="#Arial-BoldMT-111"/>
      <use x="294.482422" xlink:href="#Arial-BoldMT-108"/>
      <use x="322.265625" xlink:href="#Arial-BoldMT-117"/>
      <use x="383.349609" xlink:href="#Arial-BoldMT-116"/>
      <use x="416.650391" xlink:href="#Arial-BoldMT-105"/>
      <use x="444.433594" xlink:href="#Arial-BoldMT-111"/>
      <use x="505.517578" xlink:href="#Arial-BoldMT-110"/>
     </g>
    </g>
   </g>
  </g>
 </g>
 <defs>
  <clipPath id="p22a53640e4">
   <rect height="258.6" width="100.947059" x="59.05" y="69.6"/>
  </clipPath>
  <clipPath id="pb5b6a16e3c">
   <rect height="258.6" width="100.947059" x="189.651471" y="69.6"/>
  </clipPath>
  <clipPath id="p7199ac108d">
   <rect height="258.6" width="100.947059" x="320.252941" y="69.6"/>
  </clipPath>
 </defs>
</svg>
